<svg id="Icons" height="512" viewBox="0 0 74 74" width="512" xmlns="http://www.w3.org/2000/svg"><path d="m24.921 71h-21.921a1 1 0 0 1 -1-1v-65.212a1 1 0 0 1 1-1h21.921a1 1 0 0 1 1 1v65.212a1 1 0 0 1 -1 1zm-20.921-2h19.921v-63.212h-19.921z"  style="fill:#6EC656;"/>
<path d="m3 20.956h21.921v2h-21.921z" style="fill:#6EC656;"/>
<path d="m3 37.851h21.921v2h-21.921z" style="fill:#6EC656;"/>
<path d="m3 54.745h21.921v2h-21.921z" style="fill:#6EC656;"/>
<path d="m25.693 64.644-1.543-1.272 31.5-38.259-14.885-12.247-15.072 18.294-1.543-1.271 15.706-19.066a1 1 0 0 1 1.407-.137l16.437 13.514a1 1 0 0 1 .137 1.407z" style="fill:#6EC656;"/>
<path d="m37.16 20.561h1.999v21.256h-1.999z" transform="matrix(.636 -.772 .772 .636 -10.175 40.815)" style="fill:#6EC656;"/>
<path d="m29.382 39.137h1.999v14.151h-1.999z" transform="matrix(.636 -.772 .772 .636 -24.603 40.266)" style="fill:#6EC656;"/>
<path d="m25.271 70.937-.7-1.873 45.166-16.933-6.284-18.239-17.6 6.053-.65-1.891 18.542-6.378a1 1 0 0 1 1.271.619l6.927 20.1a1 1 0 0 1 -.595 1.263z" style="fill:#6EC656;"/>
<path d="m50.736 37.505h1.999v21.854h-1.999z" transform="matrix(.946 -.325 .325 .946 -12.939 19.458)" style="fill:#6EC656;"/>
<path d="m36.508 51.083h2v13.734h-2z" transform="matrix(.945 -.326 .326 .945 -16.846 15.398)" style="fill:#6EC656;"/>
<path d="m13.943 66.717a3.942 3.942 0 1 1 3.957-3.925 3.929 3.929 0 0 1 -3.957 3.925zm0-5.884a1.942 1.942 0 1 0 1.957 1.959 1.944 1.944 0 0 0 -1.957-1.959z" style="fill:#6EC656;"/>
</svg>
